<?xml version="1.0" standalone="no"?>
<!DOCTYPE svg PUBLIC "-//W3C//DTD SVG 20010904//EN"
 "http://www.w3.org/TR/2001/REC-SVG-20010904/DTD/svg10.dtd">
<svg version="1.0" xmlns="http://www.w3.org/2000/svg"
 width="610.000000pt" height="343.000000pt" viewBox="0 0 610.000000 343.000000"
 preserveAspectRatio="xMidYMid meet">

<g transform="translate(0.000000,343.000000) scale(0.100000,-0.100000)"
fill="#000000" stroke="none">
<path d="M1159 2511 c-477 -122 -734 -629 -548 -1078 78 -185 248 -352 439
-429 89 -36 100 -27 100 81 l0 84 -52 -6 c-103 -10 -178 29 -223 117 -13 26
-45 66 -71 89 -54 47 -50 68 10 57 42 -8 86 -43 116 -92 32 -50 91 -78 153
-71 54 7 77 21 77 46 0 9 9 30 19 47 l19 30 -62 13 c-130 26 -231 103 -269
207 -42 115 -30 275 26 351 22 30 24 40 19 107 -3 44 0 88 8 111 12 35 14 37
49 31 20 -4 70 -23 111 -44 73 -36 76 -37 130 -25 73 15 200 15 280 0 63 -12
66 -12 107 14 49 31 147 63 167 56 23 -9 40 -113 28 -167 -8 -35 -8 -48 3 -60
8 -9 26 -42 41 -74 25 -54 26 -66 22 -162 -4 -91 -9 -111 -37 -168 -48 -99
-143 -162 -272 -181 l-45 -7 23 -46 c21 -41 23 -58 23 -194 0 -148 0 -148 24
-160 22 -9 39 -4 128 40 155 76 253 165 337 305 78 129 111 251 111 408 0 345
-220 645 -555 755 -111 37 -322 44 -436 15z"/>
<path d="M2761 2149 c-116 -20 -200 -94 -238 -209 -14 -42 -18 -85 -17 -185 0
-146 17 -208 75 -278 86 -104 303 -136 463 -67 l46 19 -2 193 -3 193 -137 3
-138 3 0 -71 0 -70 55 0 55 0 0 -75 0 -74 -35 -7 c-79 -14 -155 17 -187 79
-20 37 -23 57 -23 157 0 126 15 175 66 212 47 35 152 41 271 16 17 -4 50 118
35 131 -34 27 -200 44 -286 30z"/>
<path d="M3837 2124 c-4 -4 -7 -171 -7 -371 l0 -363 85 0 85 0 0 160 0 160
120 0 120 0 0 -160 0 -160 80 0 80 0 0 370 0 370 -80 0 -80 0 0 -140 0 -140
-120 0 -119 0 -3 138 -3 137 -75 3 c-42 1 -79 0 -83 -4z"/>
<path d="M5050 2125 c0 -3 0 -168 0 -367 l-1 -363 61 -3 c49 -2 60 0 60 13 0
19 -2 19 51 -7 56 -27 169 -30 216 -5 69 37 103 119 103 252 0 107 -20 175
-65 214 -60 53 -133 61 -242 26 -22 -7 -22 -6 -25 116 l-3 124 -77 3 c-43 2
-78 0 -78 -3z m296 -368 c23 -21 27 -32 32 -98 8 -131 -30 -175 -127 -149
l-41 11 0 119 0 118 28 10 c45 17 79 13 108 -11z"/>
<path d="M3196 2085 c-49 -45 -29 -125 38 -149 32 -11 85 13 102 46 45 87 -67
171 -140 103z"/>
<path d="M3475 2028 c-2 -7 -6 -42 -7 -78 l-3 -64 -37 -9 -38 -9 0 -54 0 -54
39 0 38 0 5 -138 c5 -159 17 -191 81 -225 40 -20 140 -27 185 -13 21 7 23 13
20 64 l-3 57 -33 -3 c-19 -2 -44 3 -58 12 -23 16 -24 20 -24 131 l0 115 55 0
55 0 0 65 0 65 -55 0 -54 0 -3 73 -3 72 -78 3 c-56 2 -79 -1 -82 -10z"/>
<path d="M3180 1640 l0 -250 80 0 80 0 0 250 0 250 -80 0 -80 0 0 -250z"/>
<path d="M4484 1875 c-4 -8 -5 -99 -3 -203 4 -210 12 -237 78 -276 50 -29 169
-28 235 2 58 26 56 26 56 7 0 -12 13 -15 55 -15 l55 0 0 250 0 250 -80 0 -80
0 0 -185 0 -184 -37 -10 c-51 -14 -65 -14 -91 5 -21 15 -22 20 -22 195 l0 179
-80 0 c-63 0 -82 -3 -86 -15z"/>
<path d="M870 1370 c0 -5 5 -10 11 -10 5 0 7 5 4 10 -3 6 -8 10 -11 10 -2 0
-4 -4 -4 -10z"/>
<path d="M900 1326 c0 -9 5 -16 10 -16 6 0 10 4 10 9 0 6 -4 13 -10 16 -5 3
-10 -1 -10 -9z"/>
<path d="M930 1286 c0 -2 7 -9 15 -16 12 -10 15 -10 15 4 0 9 -7 16 -15 16 -8
0 -15 -2 -15 -4z"/>
<path d="M992 1251 c2 -7 7 -12 11 -12 12 1 9 15 -3 20 -7 2 -11 -2 -8 -8z"/>
<path d="M1121 1251 c-10 -7 -10 -10 -1 -16 6 -4 16 -3 22 3 13 13 -4 23 -21
13z"/>
<path d="M1057 1244 c-11 -11 3 -24 18 -18 8 4 12 10 9 15 -6 11 -18 12 -27 3z"/>
</g>
</svg>
